<svg xmlns="http://www.w3.org/2000/svg" width="535.391" height="281.62" viewBox="0 0 535.391 281.62"><g transform="translate(-2183.68 -383.84)"><path d="M2183.68,611.94V585.56h9.23a11.286,11.286,0,0,1,5.13,1.04,6.89,6.89,0,0,1,3.03,2.83,8.109,8.109,0,0,1,1,4.05,8.2,8.2,0,0,1-.96,3.94,6.912,6.912,0,0,1-3,2.85,11.192,11.192,0,0,1-5.2,1.05h-5.24v10.63h-3.99Zm3.99-13.91h5.05a5.62,5.62,0,0,0,4.05-1.22,4.5,4.5,0,0,0,1.22-3.34,4.633,4.633,0,0,0-1.22-3.41,5.575,5.575,0,0,0-4.05-1.23h-5.05Z" fill="#fff"/><path d="M2205.88,611.94V584.8h4v27.14Z" fill="#fff"/><path d="M2223.67,612.39a9.684,9.684,0,0,1-4.88-1.22,8.762,8.762,0,0,1-3.34-3.41,10.41,10.41,0,0,1-1.21-5.09,10.8,10.8,0,0,1,1.19-5.16,8.667,8.667,0,0,1,3.32-3.47,9.638,9.638,0,0,1,4.96-1.24,9.2,9.2,0,0,1,4.79,1.22,8.7,8.7,0,0,1,3.17,3.26,9.128,9.128,0,0,1,1.13,4.49c0,.25-.01.52-.02.81s-.03.61-.06.96h-14.55a5.769,5.769,0,0,0,1.79,4.13,5.441,5.441,0,0,0,3.71,1.41,5.052,5.052,0,0,0,2.85-.77,4.622,4.622,0,0,0,1.71-2.09h4a8.439,8.439,0,0,1-3,4.41A8.76,8.76,0,0,1,2223.67,612.39Zm0-16.32a5.6,5.6,0,0,0-3.54,1.19,5.165,5.165,0,0,0-1.88,3.56h10.55a4.784,4.784,0,0,0-1.55-3.47A5.155,5.155,0,0,0,2223.67,596.07Z" fill="#fff"/><path d="M2243.27,612.39a8.548,8.548,0,0,1-3.92-.79,5.4,5.4,0,0,1-2.3-2.09,5.594,5.594,0,0,1-.75-2.85,5.09,5.09,0,0,1,2.11-4.3,9.885,9.885,0,0,1,6.03-1.58h4.9v-.34a4.248,4.248,0,0,0-1.19-3.28,4.353,4.353,0,0,0-3.07-1.09,5.07,5.07,0,0,0-2.88.81,3.4,3.4,0,0,0-1.49,2.39h-4a6.2,6.2,0,0,1,1.38-3.49,7.6,7.6,0,0,1,3.02-2.22,10.31,10.31,0,0,1,4.01-.77,8.433,8.433,0,0,1,6.07,2.05,7.4,7.4,0,0,1,2.15,5.6v11.5h-3.47l-.34-3.2a7.054,7.054,0,0,1-2.3,2.6A6.815,6.815,0,0,1,2243.27,612.39Zm.79-3.24a4.7,4.7,0,0,0,2.73-.77,5.174,5.174,0,0,0,1.73-2.05,8.12,8.12,0,0,0,.77-2.83h-4.45a5.33,5.33,0,0,0-3.37.83,2.565,2.565,0,0,0-1,2.07,2.4,2.4,0,0,0,.96,2.02A4.256,4.256,0,0,0,2244.06,609.15Z" fill="#fff"/><path d="M2265.46,612.39a9.462,9.462,0,0,1-5.84-1.73,6.529,6.529,0,0,1-2.64-4.6h4.03a4.043,4.043,0,0,0,1.43,2.21,4.537,4.537,0,0,0,2.98.92,3.854,3.854,0,0,0,2.64-.75,2.29,2.29,0,0,0,.83-1.73,1.913,1.913,0,0,0-1.15-1.94,15.8,15.8,0,0,0-3.18-.92,25.543,25.543,0,0,1-3.15-.9,7.021,7.021,0,0,1-2.6-1.6,3.805,3.805,0,0,1-1.04-2.81,5.217,5.217,0,0,1,1.88-4.09,7.816,7.816,0,0,1,5.28-1.64,8.027,8.027,0,0,1,5.07,1.51,6.089,6.089,0,0,1,2.28,4.26h-3.84a2.8,2.8,0,0,0-1.11-1.88,4.108,4.108,0,0,0-2.47-.68,3.9,3.9,0,0,0-2.34.62,1.933,1.933,0,0,0-.83,1.6,1.705,1.705,0,0,0,1.15,1.54,14.777,14.777,0,0,0,3.03,1.02,34.23,34.23,0,0,1,3.49.96,6.205,6.205,0,0,1,2.58,1.6,4.391,4.391,0,0,1,.98,3.09,5.226,5.226,0,0,1-1.98,4.26A8.269,8.269,0,0,1,2265.46,612.39Z" fill="#fff"/><path d="M2286.04,612.39a9.684,9.684,0,0,1-4.88-1.22,8.762,8.762,0,0,1-3.34-3.41,10.41,10.41,0,0,1-1.21-5.09,10.8,10.8,0,0,1,1.19-5.16,8.667,8.667,0,0,1,3.32-3.47,9.638,9.638,0,0,1,4.96-1.24,9.2,9.2,0,0,1,4.79,1.22,8.7,8.7,0,0,1,3.17,3.26,9.128,9.128,0,0,1,1.13,4.49c0,.25-.01.52-.02.81s-.03.61-.06.96h-14.55a5.769,5.769,0,0,0,1.79,4.13,5.441,5.441,0,0,0,3.71,1.41,5.052,5.052,0,0,0,2.85-.77,4.622,4.622,0,0,0,1.71-2.09h4a8.439,8.439,0,0,1-3,4.41A8.741,8.741,0,0,1,2286.04,612.39Zm0-16.32a5.6,5.6,0,0,0-3.54,1.19,5.165,5.165,0,0,0-1.88,3.56h10.55a4.784,4.784,0,0,0-1.55-3.47A5.138,5.138,0,0,0,2286.04,596.07Z" fill="#fff"/><path d="M2308.81,611.94V593.25h3.58l.34,3.54a7.384,7.384,0,0,1,2.73-2.92,7.926,7.926,0,0,1,4.24-1.07v4.18h-1.09a7.475,7.475,0,0,0-2.96.55,4.257,4.257,0,0,0-2.07,1.85,7.131,7.131,0,0,0-.77,3.6v8.97h-4Z" fill="#fff"/><path d="M2331.35,612.39a9.555,9.555,0,0,1-4.81-1.22,8.96,8.96,0,0,1-3.37-3.43,11.193,11.193,0,0,1,.02-10.28,9.06,9.06,0,0,1,3.41-3.43,9.457,9.457,0,0,1,4.79-1.22,9.555,9.555,0,0,1,4.81,1.22,9.078,9.078,0,0,1,3.39,3.43,11.114,11.114,0,0,1,0,10.28,9.06,9.06,0,0,1-3.41,3.43A9.684,9.684,0,0,1,2331.35,612.39Zm0-3.43a5.157,5.157,0,0,0,2.66-.72,5.247,5.247,0,0,0,1.98-2.13,7.455,7.455,0,0,0,.75-3.52,7.682,7.682,0,0,0-.73-3.52,5.2,5.2,0,0,0-7.28-2.13,5.246,5.246,0,0,0-1.98,2.13,8.635,8.635,0,0,0,0,7.04,5.34,5.34,0,0,0,1.96,2.13A4.944,4.944,0,0,0,2331.35,608.96Z" fill="#fff"/><path d="M2352.27,611.94a6.671,6.671,0,0,1-4.37-1.34q-1.62-1.335-1.62-4.77V596.6h-3.2v-3.35h3.2l.49-4.75h3.5v4.75h5.28v3.35h-5.28v9.23a2.768,2.768,0,0,0,.66,2.13,3.453,3.453,0,0,0,2.28.58h2.15v3.39h-3.09Z" fill="#fff"/><path d="M2365.98,612.39a8.548,8.548,0,0,1-3.92-.79,5.4,5.4,0,0,1-2.3-2.09,5.594,5.594,0,0,1-.75-2.85,5.09,5.09,0,0,1,2.11-4.3,9.885,9.885,0,0,1,6.03-1.58h4.9v-.34a4.248,4.248,0,0,0-1.19-3.28,4.353,4.353,0,0,0-3.07-1.09,5.07,5.07,0,0,0-2.88.81,3.4,3.4,0,0,0-1.49,2.39h-4a6.2,6.2,0,0,1,1.38-3.49,7.6,7.6,0,0,1,3.02-2.22,10.31,10.31,0,0,1,4.01-.77,8.433,8.433,0,0,1,6.07,2.05,7.4,7.4,0,0,1,2.15,5.6v11.5h-3.47l-.34-3.2a7.054,7.054,0,0,1-2.3,2.6A6.771,6.771,0,0,1,2365.98,612.39Zm.8-3.24a4.7,4.7,0,0,0,2.73-.77,5.174,5.174,0,0,0,1.73-2.05,8.12,8.12,0,0,0,.77-2.83h-4.45a5.33,5.33,0,0,0-3.37.83,2.565,2.565,0,0,0-1,2.07,2.4,2.4,0,0,0,.96,2.02A4.256,4.256,0,0,0,2366.78,609.15Z" fill="#fff"/><path d="M2388.18,611.94a6.671,6.671,0,0,1-4.37-1.34q-1.62-1.335-1.62-4.77V596.6h-3.2v-3.35h3.2l.49-4.75h3.5v4.75h5.28v3.35h-5.28v9.23a2.768,2.768,0,0,0,.66,2.13,3.453,3.453,0,0,0,2.28.58h2.15v3.39h-3.09Z" fill="#fff"/><path d="M2403.83,612.39a9.684,9.684,0,0,1-4.88-1.22,8.762,8.762,0,0,1-3.34-3.41,10.41,10.41,0,0,1-1.21-5.09,10.8,10.8,0,0,1,1.19-5.16,8.667,8.667,0,0,1,3.32-3.47,9.638,9.638,0,0,1,4.96-1.24,9.2,9.2,0,0,1,4.79,1.22,8.7,8.7,0,0,1,3.17,3.26,9.128,9.128,0,0,1,1.13,4.49c0,.25-.01.52-.02.81s-.03.61-.06.96h-14.55a5.769,5.769,0,0,0,1.79,4.13,5.441,5.441,0,0,0,3.71,1.41,5.052,5.052,0,0,0,2.85-.77,4.622,4.622,0,0,0,1.71-2.09h4a8.439,8.439,0,0,1-3,4.41A8.761,8.761,0,0,1,2403.83,612.39Zm0-16.32a5.6,5.6,0,0,0-3.54,1.19,5.165,5.165,0,0,0-1.88,3.56h10.55a4.784,4.784,0,0,0-1.55-3.47A5.155,5.155,0,0,0,2403.83,596.07Z" fill="#fff"/><path d="M2428.78,620.23l4.48-9.84h-1.09l-7.39-17.15h4.33l5.73,13.83,5.99-13.83h4.22L2433,620.23Z" fill="#fff"/><path d="M2455.39,612.39a9.529,9.529,0,0,1-4.81-1.22,8.96,8.96,0,0,1-3.37-3.43,11.193,11.193,0,0,1,.02-10.28,9.06,9.06,0,0,1,3.41-3.43,9.457,9.457,0,0,1,4.79-1.22,9.555,9.555,0,0,1,4.81,1.22,9.006,9.006,0,0,1,3.39,3.43,11.114,11.114,0,0,1,0,10.28,9.06,9.06,0,0,1-3.41,3.43A9.682,9.682,0,0,1,2455.39,612.39Zm0-3.43a5.183,5.183,0,0,0,2.66-.72,5.246,5.246,0,0,0,1.98-2.13,7.455,7.455,0,0,0,.75-3.52,7.552,7.552,0,0,0-.74-3.52,5.2,5.2,0,0,0-7.28-2.13,5.247,5.247,0,0,0-1.98,2.13,8.635,8.635,0,0,0,0,7.04,5.34,5.34,0,0,0,1.96,2.13A5,5,0,0,0,2455.39,608.96Z" fill="#fff"/><path d="M2476.12,612.39a6.865,6.865,0,0,1-5.33-2.11q-1.935-2.115-1.94-6.29V593.25h4v10.33q0,5.43,4.45,5.43a4.746,4.746,0,0,0,3.66-1.58,6.471,6.471,0,0,0,1.43-4.52v-9.65h4v18.69h-3.54l-.3-3.28a6.5,6.5,0,0,1-2.54,2.73A7.653,7.653,0,0,1,2476.12,612.39Z" fill="#fff"/><path d="M2491.46,611.94V593.25h3.58l.34,3.54a7.384,7.384,0,0,1,2.73-2.92,7.926,7.926,0,0,1,4.24-1.07v4.18h-1.09a7.475,7.475,0,0,0-2.96.55,4.257,4.257,0,0,0-2.07,1.85,7.028,7.028,0,0,0-.77,3.6v8.97h-4Z" fill="#fff"/><path d="M2523.79,612.39a8.757,8.757,0,0,1-8.03-4.78,10.685,10.685,0,0,1-1.17-5.05,10.576,10.576,0,0,1,1.17-5.03,8.791,8.791,0,0,1,3.26-3.47,9.132,9.132,0,0,1,4.81-1.26,8.364,8.364,0,0,1,3.9.87,6.389,6.389,0,0,1,2.62,2.45V584.8h4v27.14h-3.58l-.41-2.9a8.519,8.519,0,0,1-2.49,2.34A7.521,7.521,0,0,1,2523.79,612.39Zm.72-3.46a5.461,5.461,0,0,0,4.2-1.77,7.188,7.188,0,0,0,0-9.14,5.479,5.479,0,0,0-4.2-1.75,5.537,5.537,0,0,0-4.22,1.75,6.367,6.367,0,0,0-1.66,4.58,6.986,6.986,0,0,0,.75,3.28,5.578,5.578,0,0,0,2.09,2.24A5.784,5.784,0,0,0,2524.51,608.93Z" fill="#fff"/><path d="M2548.14,612.39a9.684,9.684,0,0,1-4.88-1.22,8.762,8.762,0,0,1-3.34-3.41,10.41,10.41,0,0,1-1.21-5.09,10.8,10.8,0,0,1,1.19-5.16,8.667,8.667,0,0,1,3.32-3.47,9.638,9.638,0,0,1,4.96-1.24,9.2,9.2,0,0,1,4.79,1.22,8.7,8.7,0,0,1,3.17,3.26,9.128,9.128,0,0,1,1.13,4.49c0,.25-.01.52-.02.81s-.03.61-.06.96h-14.55a5.769,5.769,0,0,0,1.79,4.13,5.441,5.441,0,0,0,3.71,1.41,5.052,5.052,0,0,0,2.85-.77,4.622,4.622,0,0,0,1.71-2.09h4a8.439,8.439,0,0,1-3,4.41A8.74,8.74,0,0,1,2548.14,612.39Zm0-16.32a5.6,5.6,0,0,0-3.54,1.19,5.165,5.165,0,0,0-1.88,3.56h10.55a4.784,4.784,0,0,0-1.55-3.47A5.155,5.155,0,0,0,2548.14,596.07Z" fill="#fff"/><path d="M2565.9,611.94l-7.01-18.69h4.18l5.2,14.89,5.2-14.89h4.15l-6.97,18.69Z" fill="#fff"/><path d="M2583.16,589.7a2.6,2.6,0,0,1-1.87-.7,2.439,2.439,0,0,1,0-3.5,2.625,2.625,0,0,1,1.87-.7,2.583,2.583,0,0,1,1.87.7,2.463,2.463,0,0,1,0,3.5A2.616,2.616,0,0,1,2583.16,589.7Zm-2,22.24V593.25h4v18.69Z" fill="#fff"/><path d="M2599.29,612.39a9.824,9.824,0,0,1-4.92-1.24,8.785,8.785,0,0,1-3.39-3.45,10.3,10.3,0,0,1-1.22-5.11,10.437,10.437,0,0,1,1.22-5.11,8.854,8.854,0,0,1,3.39-3.45,9.67,9.67,0,0,1,4.92-1.24,9.247,9.247,0,0,1,5.82,1.81,8.164,8.164,0,0,1,3.03,4.9h-4.18a3.91,3.91,0,0,0-1.66-2.41,5.541,5.541,0,0,0-5.73-.14,5.342,5.342,0,0,0-2,2.15,8.5,8.5,0,0,0,0,6.98,5.465,5.465,0,0,0,2,2.17,5.148,5.148,0,0,0,2.71.75,5.257,5.257,0,0,0,3.02-.87,3.915,3.915,0,0,0,1.66-2.45h4.18a8.105,8.105,0,0,1-3.01,4.86A9.169,9.169,0,0,1,2599.29,612.39Z" fill="#fff"/><path d="M2621.22,612.39a9.684,9.684,0,0,1-4.88-1.22,8.762,8.762,0,0,1-3.34-3.41,10.41,10.41,0,0,1-1.21-5.09,10.8,10.8,0,0,1,1.19-5.16,8.667,8.667,0,0,1,3.32-3.47,9.638,9.638,0,0,1,4.96-1.24,9.2,9.2,0,0,1,4.79,1.22,8.7,8.7,0,0,1,3.17,3.26,9.128,9.128,0,0,1,1.13,4.49c0,.25-.01.52-.02.81s-.03.61-.06.96h-14.55a5.769,5.769,0,0,0,1.79,4.13,5.441,5.441,0,0,0,3.71,1.41,5.052,5.052,0,0,0,2.85-.77,4.622,4.622,0,0,0,1.71-2.09h4a8.439,8.439,0,0,1-3,4.41A8.721,8.721,0,0,1,2621.22,612.39Zm0-16.32a5.6,5.6,0,0,0-3.54,1.19,5.165,5.165,0,0,0-1.88,3.56h10.55a4.784,4.784,0,0,0-1.55-3.47A5.138,5.138,0,0,0,2621.22,596.07Z" fill="#fff"/><path d="M2644.93,611.94V596.6h-2.68v-3.35h2.68v-2.71c0-2.04.51-3.5,1.53-4.39a6.365,6.365,0,0,1,4.32-1.34h1.96v3.39h-1.36a2.608,2.608,0,0,0-1.88.55,2.461,2.461,0,0,0-.57,1.83v2.68h4.3v3.35h-4.3v15.34h-4Z" fill="#fff"/><path d="M2665.02,612.39a9.555,9.555,0,0,1-4.81-1.22,8.96,8.96,0,0,1-3.37-3.43,11.193,11.193,0,0,1,.02-10.28,9.06,9.06,0,0,1,3.41-3.43,9.457,9.457,0,0,1,4.79-1.22,9.555,9.555,0,0,1,4.81,1.22,9.078,9.078,0,0,1,3.39,3.43,11.114,11.114,0,0,1,0,10.28,9.06,9.06,0,0,1-3.41,3.43A9.683,9.683,0,0,1,2665.02,612.39Zm0-3.43a5.157,5.157,0,0,0,2.66-.72,5.247,5.247,0,0,0,1.98-2.13,7.455,7.455,0,0,0,.75-3.52,7.682,7.682,0,0,0-.73-3.52,5.2,5.2,0,0,0-7.28-2.13,5.246,5.246,0,0,0-1.98,2.13,8.635,8.635,0,0,0,0,7.04,5.34,5.34,0,0,0,1.96,2.13A4.969,4.969,0,0,0,2665.02,608.96Z" fill="#fff"/><path d="M2678.85,611.94V593.25h3.58l.34,3.54a7.384,7.384,0,0,1,2.73-2.92,7.926,7.926,0,0,1,4.24-1.07v4.18h-1.09a7.475,7.475,0,0,0-2.96.55,4.257,4.257,0,0,0-2.07,1.85,7.028,7.028,0,0,0-.77,3.6v8.97h-4Z" fill="#fff"/><path d="M2709,612.39a8.548,8.548,0,0,1-3.92-.79,5.4,5.4,0,0,1-2.3-2.09,5.594,5.594,0,0,1-.75-2.85,5.09,5.09,0,0,1,2.11-4.3,9.885,9.885,0,0,1,6.03-1.58h4.9v-.34a4.248,4.248,0,0,0-1.19-3.28,4.353,4.353,0,0,0-3.07-1.09,5.07,5.07,0,0,0-2.88.81,3.4,3.4,0,0,0-1.49,2.39h-4a6.2,6.2,0,0,1,1.38-3.49,7.6,7.6,0,0,1,3.02-2.22,10.31,10.31,0,0,1,4.01-.77,8.433,8.433,0,0,1,6.07,2.05,7.4,7.4,0,0,1,2.15,5.6v11.5h-3.47l-.34-3.2a7.054,7.054,0,0,1-2.3,2.6A6.771,6.771,0,0,1,2709,612.39Zm.8-3.24a4.7,4.7,0,0,0,2.73-.77,5.174,5.174,0,0,0,1.73-2.05,8.12,8.12,0,0,0,.77-2.83h-4.45a5.33,5.33,0,0,0-3.37.83,2.565,2.565,0,0,0-1,2.07,2.4,2.4,0,0,0,.96,2.02A4.256,4.256,0,0,0,2709.8,609.15Z" fill="#fff"/><path d="M2303.83,657.62a8.228,8.228,0,0,1-3.86-.87,6.682,6.682,0,0,1-2.66-2.45l-.42,2.86h-3.58V630.02h4v11.34a8.519,8.519,0,0,1,2.49-2.34,7.4,7.4,0,0,1,4.07-1.02,8.8,8.8,0,0,1,8.05,4.79,10.577,10.577,0,0,1,1.19,5.05,10.469,10.469,0,0,1-1.19,5.03,8.866,8.866,0,0,1-8.09,4.75Zm-.68-3.47a5.537,5.537,0,0,0,4.22-1.75,6.383,6.383,0,0,0,1.66-4.58,6.986,6.986,0,0,0-.75-3.28,5.564,5.564,0,0,0-5.12-3.05,5.461,5.461,0,0,0-4.2,1.77,7.188,7.188,0,0,0,0,9.14A5.474,5.474,0,0,0,2303.15,654.15Z" fill="#fff"/><path d="M2326.18,657.62a9.684,9.684,0,0,1-4.88-1.22,8.762,8.762,0,0,1-3.34-3.41,10.41,10.41,0,0,1-1.21-5.09,10.8,10.8,0,0,1,1.19-5.16,8.667,8.667,0,0,1,3.32-3.47,9.638,9.638,0,0,1,4.96-1.24,9.2,9.2,0,0,1,4.79,1.22,8.7,8.7,0,0,1,3.17,3.26,9.128,9.128,0,0,1,1.13,4.49c0,.25-.01.52-.02.81s-.03.61-.06.96h-14.55a5.769,5.769,0,0,0,1.79,4.13,5.441,5.441,0,0,0,3.71,1.41,5.052,5.052,0,0,0,2.85-.77,4.622,4.622,0,0,0,1.71-2.09h4a8.439,8.439,0,0,1-3,4.41A8.721,8.721,0,0,1,2326.18,657.62Zm0-16.32a5.6,5.6,0,0,0-3.54,1.19,5.165,5.165,0,0,0-1.88,3.56h10.55a4.784,4.784,0,0,0-1.55-3.47A5.137,5.137,0,0,0,2326.18,641.3Z" fill="#fff"/><path d="M2346.8,657.17a6.671,6.671,0,0,1-4.37-1.34q-1.62-1.335-1.62-4.77v-9.23h-3.2v-3.35h3.2l.49-4.75h3.5v4.75h5.28v3.35h-5.28v9.23a2.768,2.768,0,0,0,.66,2.13,3.453,3.453,0,0,0,2.28.58h2.15v3.39h-3.09Z" fill="#fff"/><path d="M2362.03,657.17a6.671,6.671,0,0,1-4.37-1.34q-1.62-1.335-1.62-4.77v-9.23h-3.2v-3.35h3.2l.49-4.75h3.5v4.75h5.28v3.35h-5.28v9.23a2.768,2.768,0,0,0,.66,2.13,3.453,3.453,0,0,0,2.28.58h2.15v3.39h-3.09Z" fill="#fff"/><path d="M2377.67,657.62a9.684,9.684,0,0,1-4.88-1.22,8.762,8.762,0,0,1-3.34-3.41,10.41,10.41,0,0,1-1.21-5.09,10.8,10.8,0,0,1,1.19-5.16,8.667,8.667,0,0,1,3.32-3.47,9.638,9.638,0,0,1,4.96-1.24,9.2,9.2,0,0,1,4.79,1.22,8.7,8.7,0,0,1,3.17,3.26,9.128,9.128,0,0,1,1.13,4.49c0,.25-.01.52-.02.81s-.03.61-.06.96h-14.55a5.808,5.808,0,0,0,1.79,4.13,5.441,5.441,0,0,0,3.71,1.41,5.052,5.052,0,0,0,2.85-.77,4.622,4.622,0,0,0,1.71-2.09h4a8.439,8.439,0,0,1-3,4.41A8.76,8.76,0,0,1,2377.67,657.62Zm0-16.32a5.6,5.6,0,0,0-3.54,1.19,5.187,5.187,0,0,0-1.88,3.56h10.55a4.814,4.814,0,0,0-1.54-3.47A5.227,5.227,0,0,0,2377.67,641.3Z" fill="#fff"/><path d="M2390.94,657.17V638.48h3.58l.34,3.54a7.384,7.384,0,0,1,2.73-2.92,7.926,7.926,0,0,1,4.24-1.07v4.18h-1.09a7.475,7.475,0,0,0-2.96.55,4.257,4.257,0,0,0-2.07,1.85,7.028,7.028,0,0,0-.77,3.6v8.97h-4Z" fill="#fff"/><path d="M2423.5,657.62a9.684,9.684,0,0,1-4.88-1.22,8.762,8.762,0,0,1-3.34-3.41,10.41,10.41,0,0,1-1.21-5.09,10.8,10.8,0,0,1,1.19-5.16,8.667,8.667,0,0,1,3.32-3.47,9.638,9.638,0,0,1,4.96-1.24,9.2,9.2,0,0,1,4.79,1.22,8.7,8.7,0,0,1,3.17,3.26,9.128,9.128,0,0,1,1.13,4.49c0,.25-.01.52-.02.81s-.03.61-.06.96H2418a5.808,5.808,0,0,0,1.79,4.13,5.441,5.441,0,0,0,3.71,1.41,5.052,5.052,0,0,0,2.85-.77,4.622,4.622,0,0,0,1.71-2.09h4a8.439,8.439,0,0,1-3,4.41A8.761,8.761,0,0,1,2423.5,657.62Zm0-16.32a5.6,5.6,0,0,0-3.54,1.19,5.187,5.187,0,0,0-1.88,3.56h10.55a4.814,4.814,0,0,0-1.54-3.47A5.228,5.228,0,0,0,2423.5,641.3Z" fill="#fff"/><path d="M2433.87,657.17l6.63-9.35-6.63-9.35h4.26l5.01,7.16,4.98-7.16h4.3l-6.63,9.35,6.63,9.35h-4.3l-4.98-7.16-5.01,7.16Z" fill="#fff"/><path d="M2455.65,665.46V638.47h3.58l.41,2.9a8.519,8.519,0,0,1,2.49-2.34,7.4,7.4,0,0,1,4.07-1.02,8.8,8.8,0,0,1,8.05,4.79,10.577,10.577,0,0,1,1.19,5.05,10.469,10.469,0,0,1-1.19,5.03,8.8,8.8,0,0,1-8.08,4.73,8.228,8.228,0,0,1-3.86-.87,6.682,6.682,0,0,1-2.66-2.45v11.16h-4Zm9.84-11.31a5.537,5.537,0,0,0,4.22-1.75,6.427,6.427,0,0,0,1.66-4.58,6.986,6.986,0,0,0-.75-3.28,5.564,5.564,0,0,0-5.12-3.05,5.461,5.461,0,0,0-4.2,1.77,7.188,7.188,0,0,0,0,9.14A5.458,5.458,0,0,0,2465.49,654.15Z" fill="#fff"/><path d="M2488.52,657.62a9.684,9.684,0,0,1-4.88-1.22,8.762,8.762,0,0,1-3.34-3.41,10.41,10.41,0,0,1-1.21-5.09,10.8,10.8,0,0,1,1.19-5.16,8.667,8.667,0,0,1,3.32-3.47,9.638,9.638,0,0,1,4.96-1.24,9.2,9.2,0,0,1,4.79,1.22,8.7,8.7,0,0,1,3.17,3.26,9.128,9.128,0,0,1,1.13,4.49c0,.25-.01.52-.02.81s-.03.61-.06.96h-14.55a5.808,5.808,0,0,0,1.79,4.13,5.441,5.441,0,0,0,3.71,1.41,5.052,5.052,0,0,0,2.85-.77,4.622,4.622,0,0,0,1.71-2.09h4a8.439,8.439,0,0,1-3,4.41A8.76,8.76,0,0,1,2488.52,657.62Zm0-16.32a5.6,5.6,0,0,0-3.54,1.19,5.187,5.187,0,0,0-1.88,3.56h10.55a4.814,4.814,0,0,0-1.54-3.47A5.245,5.245,0,0,0,2488.52,641.3Z" fill="#fff"/><path d="M2501.78,657.17V638.48h3.58l.34,3.54a7.384,7.384,0,0,1,2.73-2.92,7.926,7.926,0,0,1,4.24-1.07v4.18h-1.09a7.475,7.475,0,0,0-2.96.55,4.257,4.257,0,0,0-2.07,1.85,7.028,7.028,0,0,0-.77,3.6v8.97h-4Z" fill="#fff"/><path d="M2518.37,634.93a2.6,2.6,0,0,1-1.87-.7,2.3,2.3,0,0,1-.73-1.75,2.338,2.338,0,0,1,.73-1.75,2.625,2.625,0,0,1,1.87-.7,2.583,2.583,0,0,1,1.87.7,2.439,2.439,0,0,1,0,3.5A2.616,2.616,0,0,1,2518.37,634.93Zm-2,22.24V638.48h4v18.69Z" fill="#fff"/><path d="M2534.39,657.62a9.684,9.684,0,0,1-4.88-1.22,8.762,8.762,0,0,1-3.34-3.41,10.41,10.41,0,0,1-1.21-5.09,10.8,10.8,0,0,1,1.19-5.16,8.667,8.667,0,0,1,3.32-3.47,9.638,9.638,0,0,1,4.96-1.24,9.2,9.2,0,0,1,4.79,1.22,8.7,8.7,0,0,1,3.17,3.26,9.128,9.128,0,0,1,1.13,4.49c0,.25-.01.52-.02.81s-.03.61-.06.96h-14.55a5.808,5.808,0,0,0,1.79,4.13,5.441,5.441,0,0,0,3.71,1.41,5.052,5.052,0,0,0,2.85-.77,4.622,4.622,0,0,0,1.71-2.09h4a8.439,8.439,0,0,1-3,4.41A8.76,8.76,0,0,1,2534.39,657.62Zm0-16.32a5.6,5.6,0,0,0-3.54,1.19,5.187,5.187,0,0,0-1.88,3.56h10.55a4.814,4.814,0,0,0-1.54-3.47A5.245,5.245,0,0,0,2534.39,641.3Z" fill="#fff"/><path d="M2547.65,657.17V638.48h3.54l.3,3.28a6.556,6.556,0,0,1,2.54-2.73,7.379,7.379,0,0,1,3.86-1,6.865,6.865,0,0,1,5.33,2.11c1.29,1.41,1.94,3.5,1.94,6.29v10.74h-3.96V646.84q0-5.43-4.45-5.43a4.767,4.767,0,0,0-3.67,1.58,6.446,6.446,0,0,0-1.45,4.52v9.65h-3.98Z" fill="#fff"/><path d="M2578.75,657.62a9.824,9.824,0,0,1-4.92-1.24,8.785,8.785,0,0,1-3.39-3.45,10.3,10.3,0,0,1-1.22-5.11,10.437,10.437,0,0,1,1.22-5.11,8.854,8.854,0,0,1,3.39-3.45,9.67,9.67,0,0,1,4.92-1.24,9.247,9.247,0,0,1,5.82,1.81,8.164,8.164,0,0,1,3.03,4.9h-4.18a3.91,3.91,0,0,0-1.66-2.41,5.541,5.541,0,0,0-5.73-.14,5.342,5.342,0,0,0-2,2.15,8.5,8.5,0,0,0,0,6.98,5.465,5.465,0,0,0,2,2.17,5.148,5.148,0,0,0,2.71.75,5.257,5.257,0,0,0,3.02-.87,3.915,3.915,0,0,0,1.66-2.45h4.18a8.105,8.105,0,0,1-3.01,4.86A9.169,9.169,0,0,1,2578.75,657.62Z" fill="#fff"/><path d="M2600.68,657.62a9.684,9.684,0,0,1-4.88-1.22,8.762,8.762,0,0,1-3.34-3.41,10.41,10.41,0,0,1-1.21-5.09,10.8,10.8,0,0,1,1.19-5.16,8.667,8.667,0,0,1,3.32-3.47,9.638,9.638,0,0,1,4.96-1.24,9.2,9.2,0,0,1,4.79,1.22,8.7,8.7,0,0,1,3.17,3.26,9.128,9.128,0,0,1,1.13,4.49c0,.25-.01.52-.02.81s-.03.61-.06.96h-14.55a5.769,5.769,0,0,0,1.79,4.13,5.441,5.441,0,0,0,3.71,1.41,5.052,5.052,0,0,0,2.85-.77,4.622,4.622,0,0,0,1.71-2.09h4a8.439,8.439,0,0,1-3,4.41A8.741,8.741,0,0,1,2600.68,657.62Zm0-16.32a5.6,5.6,0,0,0-3.54,1.19,5.165,5.165,0,0,0-1.88,3.56h10.55a4.784,4.784,0,0,0-1.55-3.47A5.155,5.155,0,0,0,2600.68,641.3Z" fill="#fff"/><path d="M2523.02,551.88H2402.47a17.029,17.029,0,0,1-17.01-17.01V482.71a17.028,17.028,0,0,1,17.01-17.01h120.55a17.029,17.029,0,0,1,17.01,17.01v52.16A17.029,17.029,0,0,1,2523.02,551.88Zm-120.55-81.17a12.027,12.027,0,0,0-12.01,12.01v52.16a12.027,12.027,0,0,0,12.01,12.01h120.55a12.027,12.027,0,0,0,12.01-12.01V482.72a12.027,12.027,0,0,0-12.01-12.01Z" fill="#fff"/><path d="M2527.08,527.64a2.5,2.5,0,0,1-2.5-2.5V492.45a2.5,2.5,0,0,1,5,0v32.69A2.5,2.5,0,0,1,2527.08,527.64Z" fill="#fff"/><g opacity="0.3"><path d="M2379.73,538.41a17.029,17.029,0,0,1-17.01-17.01V400.85a17.028,17.028,0,0,1,17.01-17.01h52.16a17.029,17.029,0,0,1,17.01,17.01v54.82h-5V400.85a12.027,12.027,0,0,0-12.01-12.01h-52.16a12.027,12.027,0,0,0-12.01,12.01V521.4a12.027,12.027,0,0,0,12.01,12.01Z" fill="#fff"/><path d="M2421.92,399.68h-32.69a2.5,2.5,0,0,1,0-5h32.69a2.5,2.5,0,0,1,0,5Z" fill="#fff"/></g><path d="M2509.42,447.62h-5a46.421,46.421,0,0,0-46.37-46.37v-5A51.435,51.435,0,0,1,2509.42,447.62Z" fill="#fff"/><g transform="translate(0 2371.547) rotate(-90)"><path d="M1918.91,2506.9a2.345,2.345,0,0,1,.68-1.66l14.35-14.34a2.337,2.337,0,0,1,3.31,3.3l-12.7,12.7,12.7,12.7a2.338,2.338,0,0,1-3.3,3.31l-14.35-14.35A2.289,2.289,0,0,1,1918.91,2506.9Z" fill="#fff"/></g></g></svg>