<svg xmlns="http://www.w3.org/2000/svg" width="74" height="74" viewBox="0 0 74 74"><g transform="translate(-6827 502.744)"><g transform="translate(6827 -502.744)" fill="none"><path d="M37,0A37,37,0,1,1,0,37,37,37,0,0,1,37,0Z" stroke="none"/><path d="M 37 3 C 32.40871429443359 3 27.95633697509766 3.898536682128906 23.76658630371094 5.670661926269531 C 19.7182502746582 7.382965087890625 16.08183670043945 9.83489990234375 12.9583740234375 12.9583740234375 C 9.83489990234375 16.08183670043945 7.382965087890625 19.7182502746582 5.670661926269531 23.76658630371094 C 3.898536682128906 27.95633697509766 3 32.40871429443359 3 37 C 3 41.59128570556641 3.898536682128906 46.04366302490234 5.670661926269531 50.23341369628906 C 7.382965087890625 54.2817497253418 9.83489990234375 57.91816329956055 12.9583740234375 61.0416259765625 C 16.08183670043945 64.16510009765625 19.7182502746582 66.61703491210938 23.76658630371094 68.32933807373047 C 27.95633697509766 70.10146331787109 32.40871429443359 71 37 71 C 41.59128570556641 71 46.04366302490234 70.10146331787109 50.23341369628906 68.32933807373047 C 54.2817497253418 66.61703491210938 57.91816329956055 64.16510009765625 61.0416259765625 61.0416259765625 C 64.16510009765625 57.91816329956055 66.61703491210938 54.2817497253418 68.32933807373047 50.23341369628906 C 70.10146331787109 46.04366302490234 71 41.59128570556641 71 37 C 71 32.40871429443359 70.10146331787109 27.95633697509766 68.32933807373047 23.76658630371094 C 66.61703491210938 19.7182502746582 64.16510009765625 16.08183670043945 61.0416259765625 12.9583740234375 C 57.91816329956055 9.83489990234375 54.2817497253418 7.382965087890625 50.23341369628906 5.670661926269531 C 46.04366302490234 3.898536682128906 41.59128570556641 3 37 3 M 37 0 C 57.43453979492188 0 74 16.56546401977539 74 37 C 74 57.43453979492188 57.43453979492188 74 37 74 C 16.56546401977539 74 0 57.43453979492188 0 37 C 0 16.56546401977539 16.56546401977539 0 37 0 Z" stroke="none" fill="#ff6624"/></g><g transform="translate(6849.101 -477.771)"><g transform="translate(0)"><path d="M160.88,297.294a1.541,1.541,0,0,1-2.18,0l-8.7-8.7a2.311,2.311,0,0,1,0-3.27l1.09-1.09a2.311,2.311,0,0,1,3.27,0l5.433,5.433,14.682-14.682a2.311,2.311,0,0,1,3.27,0l1.09,1.09a2.311,2.311,0,0,1,0,3.27Zm0,0" transform="translate(-149.321 -274.305)" fill="#ff6624"/></g></g></g></svg>