<svg xmlns="http://www.w3.org/2000/svg" xmlns:xlink="http://www.w3.org/1999/xlink" width="118" height="46" viewBox="0 0 118 46"><defs><clipPath id="b"><rect width="118" height="46"/></clipPath></defs><g id="a" clip-path="url(#b)"><g transform="translate(7379.854 3462)"><g transform="translate(-7480.516 -3521.686)"><path d="M110.553,101.9a4.446,4.446,0,1,1-4.446-4.446,4.446,4.446,0,0,1,4.446,4.446" transform="translate(0 -20.741)" fill="#ff5e00"/><path d="M144.84,101.9a4.446,4.446,0,1,1-4.446-4.446,4.446,4.446,0,0,1,4.446,4.446" transform="translate(-22.389 -20.741)" fill="#ff5e00"/><path d="M110.553,101.9a4.446,4.446,0,1,1-4.446-4.446,4.446,4.446,0,0,1,4.446,4.446" transform="translate(0 -20.741)" fill="#ff5e00"/><path d="M102.7,133.191a10.034,10.034,0,1,0,20.068,0v-1.444H102.7Z" transform="translate(-0.679 -43.136)" fill="#ff5e00"/><rect width="6.382" height="22.546" transform="translate(210.988 77.172)" fill="#1701e4"/><path d="M204.649,110.237a5.076,5.076,0,1,1-10.153,0V98.783h-6.381v11.46a11.458,11.458,0,1,0,22.915,0V98.783h-6.381Z" transform="translate(-56.452 -21.612)" fill="#1701e4"/><rect width="6.382" height="22.546" transform="translate(185.09 77.172)" fill="#1701e4"/><path d="M275.563,97.712a11.471,11.471,0,0,0-11.458,11.458v11.46h6.381V109.176a5.076,5.076,0,1,1,10.153,0V120.63h6.381V109.17a11.471,11.471,0,0,0-11.458-11.458" transform="translate(-106.072 -20.912)" fill="#1701e4"/><path d="M379.257,77.15a5.082,5.082,0,0,1,5.077-5.077V65.686a11.471,11.471,0,0,0-11.458,11.458V99.718h6.381V83.554h5.077V77.172h-5.077Z" transform="translate(-177.097)" fill="#1701e4"/></g></g></g></svg>