<svg xmlns="http://www.w3.org/2000/svg" xmlns:xlink="http://www.w3.org/1999/xlink" width="40" height="40" viewBox="0 0 40 40"><defs><clipPath id="b"><rect width="40" height="40"/></clipPath></defs><g id="a" clip-path="url(#b)"><g transform="translate(4422 3659.036)"><g transform="translate(-4421 -3659.036)"><g transform="translate(0)"><path d="M583.68,253.039a10.606,10.606,0,0,0-10.57,8.9,10.271,10.271,0,0,0,2.644,8.329,10.538,10.538,0,0,1,2.807,7.2l-.008,4.2a3.1,3.1,0,0,0,3.141,3.071h4.048a3.1,3.1,0,0,0,3.141-3.071l.008-4.2a9.931,9.931,0,0,1,2.644-7.034,9.99,9.99,0,0,0,2.893-7.034,10.59,10.59,0,0,0-10.749-10.353Zm3.63,28.624a1.468,1.468,0,0,1-1.489,1.458h-4.048a1.463,1.463,0,0,1-1.489-1.458V279.8H587.3v1.861Zm3.071-12.369a11.5,11.5,0,0,0-3.141,8.166v.729h-7.018v-.729a12.434,12.434,0,0,0-3.3-8.244,8.536,8.536,0,0,1-2.233-7.034,9.115,9.115,0,0,1,9-7.522,8.937,8.937,0,0,1,9.089,8.732,8.45,8.45,0,0,1-2.4,5.9Zm0,0" transform="translate(-564.679 -246.734)" fill="#ff5e00"/><rect width="1.652" height="3.878" rx="0.826" transform="translate(18.171)" fill="#ff5e00"/><g transform="translate(29.012 5.077)"><path d="M786.864,243.359l.01.01a.81.81,0,0,0,1.135.011l1.66-1.6a.81.81,0,0,0,.01-1.159l-.013-.012a.81.81,0,0,0-1.133-.008l-1.658,1.6A.81.81,0,0,0,786.864,243.359Zm-.583-.583" transform="translate(-786.281 -240.377)" fill="#ff5e00"/><rect width="4.048" height="1.621" rx="0.81" transform="translate(4.94 12.387)" fill="#ff5e00"/></g><rect width="4.048" height="1.621" rx="0.81" transform="translate(0 17.464)" fill="#ff5e00"/><path d="M542.133,240.533l-.012.012a.81.81,0,0,0,.009,1.159l1.66,1.6a.81.81,0,0,0,1.135-.011l.01-.01a.81.81,0,0,0-.011-1.156l-1.658-1.6A.81.81,0,0,0,542.133,240.533Z" transform="translate(-536.561 -235.228)" fill="#ff5e00"/></g></g><g transform="translate(-4407.04 -3647.594)"><path d="M105.972,99.605a2.155,2.155,0,1,1-2.155-2.155,2.155,2.155,0,0,1,2.155,2.155" transform="translate(-101.661 -97.45)" fill="#ff5e00"/><path d="M140.26,99.605A2.155,2.155,0,1,1,138.1,97.45a2.155,2.155,0,0,1,2.155,2.155" transform="translate(-130.18 -97.45)" fill="#ff5e00"/><path d="M105.972,99.605a2.155,2.155,0,1,1-2.155-2.155,2.155,2.155,0,0,1,2.155,2.155" transform="translate(-101.661 -97.45)" fill="#ff5e00"/><path d="M102.7,132.447a4.865,4.865,0,1,0,9.729,0v-.7H102.7Z" transform="translate(-102.526 -125.977)" fill="#ff5e00"/></g></g></g></svg>